<svg id="SvgjsSvg1018" width="288" height="288" xmlns="http://www.w3.org/2000/svg" version="1.1" xmlns:xlink="http://www.w3.org/1999/xlink" xmlns:svgjs="http://svgjs.com/svgjs"><defs id="SvgjsDefs1019"></defs><g id="SvgjsG1020" transform="matrix(1,0,0,1,0,0)"><svg xmlns="http://www.w3.org/2000/svg" width="288" height="288" enable-background="new 0 0 100 100" viewBox="0 0 100 100"><path d="M85.86,92.438l-8.629-62.325c-0.138-0.989-0.982-1.726-1.981-1.726H64.628v-8.475c0-0.02-0.005-0.038-0.006-0.057
		C64.591,11.817,58.045,5.287,50,5.287s-14.591,6.53-14.622,14.569c-0.001,0.02-0.006,0.038-0.006,0.057v8.475h-9.183
		c-0.014,0-0.028,0.004-0.042,0.005c-0.088,0.002-0.173,0.015-0.259,0.028c-0.05,0.008-0.1,0.01-0.149,0.021
		c-0.106,0.024-0.207,0.061-0.307,0.102c-0.026,0.01-0.053,0.016-0.078,0.028c-0.123,0.057-0.24,0.126-0.349,0.206
		c-0.026,0.019-0.048,0.044-0.074,0.065c-0.081,0.066-0.159,0.134-0.229,0.212c-0.007,0.008-0.016,0.013-0.023,0.021
		c-0.023,0.027-0.039,0.059-0.061,0.087c-0.056,0.072-0.11,0.145-0.157,0.225c-0.026,0.046-0.047,0.093-0.07,0.14
		c-0.036,0.074-0.069,0.15-0.096,0.229c-0.019,0.058-0.033,0.116-0.047,0.175c-0.011,0.047-0.029,0.09-0.037,0.138L14.146,92.394
		c-0.007,0.042-0.003,0.083-0.007,0.125c-0.008,0.086-0.018,0.172-0.015,0.258c0.002,0.065,0.015,0.128,0.023,0.192
		c0.008,0.065,0.013,0.13,0.028,0.194c0.015,0.063,0.039,0.123,0.059,0.184c0.021,0.062,0.038,0.125,0.065,0.185
		c0.027,0.06,0.063,0.116,0.096,0.173c0.031,0.055,0.059,0.111,0.096,0.164c0.055,0.077,0.12,0.147,0.185,0.216
		c0.023,0.025,0.041,0.053,0.065,0.076c0.002,0.002,0.003,0.002,0.005,0.004c0.069,0.066,0.148,0.122,0.227,0.177
		c0.028,0.019,0.052,0.044,0.081,0.062c0.042,0.026,0.089,0.044,0.133,0.067c0.071,0.038,0.141,0.078,0.215,0.107
		c0.036,0.014,0.076,0.021,0.114,0.033c0.087,0.028,0.174,0.055,0.263,0.07c0.008,0.001,0.016,0.005,0.025,0.007
		c0.101,0.017,0.202,0.023,0.302,0.024c0.005,0,0.011,0.002,0.016,0.002c0,0,0.001,0,0.001,0c0.001,0,0.001,0,0.002,0
		c0.025,0,0.049-0.006,0.073-0.007c0.022,0.001,0.043,0.007,0.065,0.007h18.556h49.061c0.578,0,1.128-0.25,1.508-0.687
		C85.767,93.591,85.939,93.012,85.86,92.438z M39.372,19.941c0-0.01,0.003-0.019,0.003-0.029c0-5.858,4.767-10.625,10.625-10.625
		s10.625,4.767,10.625,10.625c0,0.01,0.003,0.019,0.003,0.029v8.447H39.372V19.941z M20.79,90.713l5.015-5.262l4.604,5.262H20.79z
		 M27.375,81.168c-0.022-0.025-0.048-0.043-0.071-0.066c-0.02-0.02-0.034-0.044-0.055-0.064c-0.025-0.024-0.055-0.041-0.081-0.063
		c-0.057-0.049-0.114-0.095-0.175-0.136c-0.049-0.034-0.099-0.064-0.15-0.092c-0.063-0.035-0.127-0.068-0.193-0.096
		c-0.054-0.023-0.107-0.042-0.162-0.06c-0.068-0.022-0.137-0.041-0.207-0.056c-0.055-0.011-0.109-0.02-0.165-0.027
		c-0.073-0.009-0.145-0.015-0.218-0.016c-0.054-0.001-0.107,0.001-0.161,0.005c-0.074,0.005-0.147,0.013-0.22,0.026
		c-0.054,0.01-0.106,0.022-0.159,0.036c-0.07,0.019-0.139,0.04-0.207,0.067c-0.055,0.021-0.109,0.046-0.163,0.072
		c-0.061,0.03-0.121,0.063-0.18,0.1c-0.057,0.036-0.11,0.075-0.164,0.117c-0.03,0.023-0.063,0.04-0.091,0.065
		c-0.023,0.02-0.039,0.045-0.061,0.065c-0.022,0.021-0.048,0.037-0.07,0.06l-5.297,5.557l6.912-42.791l5.883,42.49L27.375,81.168z
		 M36.56,90.713l-8.075-58.325h6.887v4.707c0,1.104,0.896,2,2,2s2-0.896,2-2v-4.707h21.256v4.707c0,1.104,0.896,2,2,2s2-0.896,2-2
		v-4.707h8.88l8.075,58.325H36.56z" fill="#ffffff" class="color000 svgShape"></path><path d="M63.34,53.544c-0.781-0.781-2.047-0.781-2.828,0l-5.179,5.178l-5.179-5.178c-0.781-0.781-2.048-0.781-2.828,0
		c-0.781,0.781-0.781,2.047,0,2.828l5.179,5.178l-5.179,5.178c-0.781,0.781-0.781,2.047,0,2.828c0.39,0.391,0.902,0.586,1.414,0.586
		s1.023-0.195,1.414-0.586l5.179-5.178l5.179,5.178c0.391,0.391,0.902,0.586,1.414,0.586s1.023-0.195,1.414-0.586
		c0.781-0.781,0.781-2.047,0-2.828l-5.179-5.178l5.179-5.178C64.121,55.591,64.121,54.325,63.34,53.544z" fill="#ffffff" class="color000 svgShape"></path></svg></g></svg>