<svg id="SvgjsSvg1001" width="288" height="288" xmlns="http://www.w3.org/2000/svg" version="1.1" xmlns:xlink="http://www.w3.org/1999/xlink" xmlns:svgjs="http://svgjs.com/svgjs"><defs id="SvgjsDefs1002"></defs><g id="SvgjsG1008" transform="matrix(1,0,0,1,0,0)"><svg xmlns="http://www.w3.org/2000/svg" width="288" height="288" viewBox="0 0 16.933 16.933"><path style="line-height:normal;font-variant-ligatures:normal;font-variant-position:normal;font-variant-caps:normal;font-variant-numeric:normal;font-variant-alternates:normal;font-feature-settings:normal;text-indent:0;text-align:start;text-decoration-line:none;text-decoration-style:solid;text-decoration-color:#000;text-transform:none;text-orientation:mixed;shape-padding:0;isolation:auto;mix-blend-mode:normal" d="m 0.87644683,281.7669 c -0.3907839,0.39078 -0.3907889,1.03138 0,1.42216 l 0.64640597,0.64641 c -0.05359,0.0904 -0.09562,0.18848 -0.121681,0.29269 l -1.15322587,4.61145 c -0.09647,0.3858 0.01733,0.79345 0.298538,1.07466 l 6.50352367,6.50352 c 0.0498,0.0498 0.117398,0.0777 0.1878179,0.0775 l 2.2289882,-0.009 c 0.06948,-3.7e-4 0.136024,-0.0281 0.185261,-0.0771 l 5.3389693,-5.33897 c 0.31936,-0.31936 0.320806,-0.84483 0.0015,-1.16419 l -0.173935,-0.17393 1.791228,-3.10378 c 0.225902,-0.39115 0.09002,-0.89817 -0.301096,-1.12399 l -2.823148,-1.62972 c -0.06271,-0.0363 -0.137271,-0.0453 -0.206819,-0.0249 l -0.400853,0.11584 -0.122777,-0.4268 c -0.01847,-0.0655 -0.06158,-0.1214 -0.120219,-0.15603 l -4.2602856,-2.45955 c -0.344397,-0.19883 -0.7697369,-0.20251 -1.1174169,-0.01 l -3.7998719,2.11095 -1.1583428,-1.15834 c -0.390789,-0.39079 -1.031747,-0.39042 -1.42253187,3.7e-4 z m 0.37417697,0.37418 c 0.18997,-0.18997 0.484206,-0.19034 0.674178,-3.7e-4 l 1.022411,1.02241 -0.753107,0.17503 c -0.107261,0.025 -0.20695,0.0676 -0.298172,0.12205 l -0.64531,-0.64531 c -0.189972,-0.18997 -0.189968,-0.48385 0,-0.67381 z m 0.67162,2.09378 0.7973179,0.79732 c -0.2901749,0.46237 -0.23759,1.08299 0.1637021,1.48429 0.4659689,0.46597 1.22989,0.4656 1.695858,-3.7e-4 0.4659688,-0.46597 0.4648729,-1.22843 -0.00111,-1.69439 -0.4018089,-0.40181 -1.0223798,-0.45522 -1.4846519,-0.16407 l -0.7969418,-0.79696 c 0,0 3.0176447,-0.7055 4.5259369,-1.05675 0.0013,-5.6e-4 0.00241,-9.4e-4 0.0037,-10e-4 0.2062149,-0.0516 0.4229978,0.009 0.573324,0.15895 l 3.403039,3.40304 0.01243,0.60366 c 0.0028,0.14639 0.124009,0.26266 0.270401,0.25943 l 0.567844,-0.0124 2.965282,2.96528 c 0.118521,0.11853 0.116704,0.29694 -0.0018,0.41547 l -4.7824533,4.78246 -1.2924478,-1.29245 c -0.1031941,-0.10245 -0.269535,-0.10246 -0.372714,0 l -1.3012168,1.30122 -5.94700777,-5.94701 c -0.1503371,-0.15034 -0.210516,-0.36709 -0.1589521,-0.57333 0.38919697,-1.54254 1.16053897,-4.63189 1.16053897,-4.63189 z m 3.0387278,-1.54056 2.5541999,-1.41778 c 0.185882,-0.10315 0.4096721,-0.10081 0.5937861,0.005 l 4.1685704,2.40585 0.168453,0.5799 c 0.0405,0.14027 0.186709,0.22121 0.32704,0.18087 l 0.545553,-0.15895 2.724843,1.57308 c 0.145163,0.0838 0.191609,0.25572 0.107795,0.40085 l -1.720703,2.98063 -2.48331,-2.48331 c -0.05105,-0.0503 -0.12019,-0.0779 -0.191839,-0.0764 l -0.416931,0.008 -0.0099,-0.44616 c -0.0013,-0.0677 -0.02851,-0.13228 -0.076,-0.18052 l -3.4790435,-3.47904 c -0.2811979,-0.28119 -0.689605,-0.39353 -1.075395,-0.29708 z m -1.4784379,2.3525 c 0.2404949,-0.0977 0.524097,-0.0481 0.721315,0.14908 0.263752,0.26375 0.264844,0.68229 0.00111,0.94604 -0.2637478,0.26375 -0.6833849,0.26375 -0.9471369,0 -0.1967553,-0.19674 -0.2459114,-0.4797 -0.1487313,-0.72021 l 0.388793,0.38879 c 0.249509,0.24951 0.6236859,-0.12467 0.3741769,-0.37418 z m 2.4734448,1.65566 -1.5869308,1.58992 c -0.08496,0.085 -0.101913,0.21667 -0.04129,0.32046 l 1.950181,3.33362 c 0.0873,0.15009 0.293052,0.17685 0.415834,0.0541 l 1.2237489,-1.22375 1.7382451,2.44859 c 0.162909,0.22874 0.5229903,0.0796 0.4764893,-0.19732 L 9.1423667,287.4114 c -0.03748,-0.21033 -0.2959032,-0.29182 -0.4472573,-0.14104 l -1.2763679,1.27637 -1.0468938,-1.79013 c -0.0873,-0.1501 -0.293048,-0.17685 -0.4158332,-0.0541 z m 0.1330071,0.61608 1.0465271,1.78976 c 0.09477,0.16792 0.3315568,0.18135 0.4447019,0.0252 l 1.1283791,-1.12838 0.697195,3.95371 -1.2383643,-1.74409 c -0.09506,-0.13408 -0.2880658,-0.14997 -0.4037769,-0.0333 l -1.202922,1.20293 -1.6735657,-2.86188 z m 1.152861,8.44274 1.114493,-1.1145 1.1046271,1.10463 -0.106333,0.10634 -2.0079153,0.008 z" color="#000" font-family="sans-serif" font-weight="400" overflow="visible" transform="translate(0 -280.067)" fill="#ffffff" class="color000 svgShape"></path></svg></g></svg>