<svg id="SvgjsSvg1001" width="288" height="288" xmlns="http://www.w3.org/2000/svg" version="1.1" xmlns:xlink="http://www.w3.org/1999/xlink" xmlns:svgjs="http://svgjs.com/svgjs"><defs id="SvgjsDefs1002"></defs><g id="SvgjsG1008" transform="matrix(1,0,0,1,0,0)"><svg xmlns="http://www.w3.org/2000/svg" width="288" height="288" viewBox="0 0 100 100"><path d="M72 50c0 1.1-.9 2-2 2H30c-1.1 0-2-.9-2-2s.9-2 2-2h40c1.1 0 2 .9 2 2zm16 0c0 21-17 38-38 38S12 71 12 50s17-38 38-38 38 17 38 38zm-4 0c0-18.8-15.2-34-34-34S16 31.2 16 50s15.2 34 34 34 34-15.2 34-34z" fill="#ca1c41" class="color000 svgShape"></path><path fill="#0000ff" d="M1364-1210V474H-420v-1684h1784m8-8H-428V482h1800v-1700z" class="color00F svgShape"></path></svg></g></svg>