<svg xmlns="http://www.w3.org/2000/svg" id="svg6485" width="32" height="32" version="1.1" viewBox="0 0 32 32"><g id="layer1" transform="translate(0 -1020.362)"><path style="line-height:normal;text-indent:0;text-align:start;text-decoration-line:none;text-decoration-style:solid;text-decoration-color:#000;text-transform:none;block-progression:tb;isolation:auto;mix-blend-mode:normal" id="path12971" fill="#000" fill-opacity="1" fill-rule="nonzero" stroke="none" stroke-dasharray="none" stroke-dashoffset="0" stroke-linecap="round" stroke-linejoin="round" stroke-miterlimit="4" stroke-opacity="1" stroke-width="1" d="M18.7 1025.092a2.012 2.012 0 0 0-1.14.266l-14.262 8.234a1.54 1.54 0 0 0-.56 2.092l4.469 7.74a1.54 1.54 0 0 0 2.091.56l14.262-8.234c.475-.274.803-.718.936-1.213.351-1.312.76-3.065 1.105-4.466.766.083 1.448.23 1.96.41.342.12.61.257.759.371.14.106.136.148.135.127-.004 0-.001 0-.008.01-.04.043-.145.121-.305.195-.32.148-.85.283-1.494.356a.5.5 0 0 0-.021 0H26.585c-.038 0-.09.01-.144.01-.106.01-.15 0-.26.014a.5.5 0 1 0 .094.994c-.069.01.106 0 .217-.01.055 0 .112-.01.16-.01h.068c.009-.001.032-.01.04-.01h.011c.709-.081 1.316-.22 1.79-.438.237-.11.445-.237.614-.418.17-.18.3-.442.29-.722-.016-.393-.262-.681-.54-.893-.278-.212-.624-.378-1.033-.521-.817-.287-1.886-.476-3.062-.524-1.176-.048-2.234.052-3.041.276-.404.111-.746.25-1.024.45-.278.202-.525.52-.51.913.013.32.188.578.393.77.042.038.095.068.14.105a1.007 1.007 0 0 1-.61-.051.995.995 0 0 1-.616-.988.996.996 0 0 1 .738-.9.5.5 0 0 0-.257-.968 2.004 2.004 0 0 0-1.479 1.801 2.002 2.002 0 0 0 3.5 1.45c.42-.48.577-1.12.453-1.723a10.25 10.25 0 0 1 2.07-.14c-.34 1.381-.728 3.037-1.058 4.269a.994.994 0 0 1-.469.607l-14.262 8.235a.52.52 0 0 1-.726-.196l-4.469-7.74a.518.518 0 0 1 .195-.725l14.262-8.234a.994.994 0 0 1 .76-.104l5.596 1.606a.5.5 0 0 0 .007 0 .721.721 0 0 1 .418.297.5.5 0 1 0 .83-.557 1.729 1.729 0 0 0-.99-.705l-5.594-1.605a.5.5 0 0 0-.007 0 1.938 1.938 0 0 0-.38-.064zm2.845 5.352a.98.98 0 0 1-.028.361c-.057-.038-.154-.084-.187-.115-.087-.081-.078-.108-.077-.078.002.036-.027.028.098-.062.044-.032.121-.07.194-.106zm-9.108 1.316a.5.5 0 0 0-.049 0 .5.5 0 0 0-.457.377l-1.896 7.074a.5.5 0 0 0 .967.26l1.894-7.076a.5.5 0 0 0-.459-.637zm-3.78 1.772a1.51 1.51 0 0 0-1.538 1.107 1.508 1.508 0 0 0 1.06 1.838 1.508 1.508 0 0 0 1.838-1.06 1.51 1.51 0 0 0-1.062-1.838 1.457 1.457 0 0 0-.297-.047zm-.161 1c.064-.01.133 0 .2.014a.492.492 0 0 1 .354.611.493.493 0 0 1-.613.353.491.491 0 0 1-.353-.61.492.492 0 0 1 .412-.368zm5.957.552a1.509 1.509 0 0 0-1.54 1.108 1.508 1.508 0 0 0 1.061 1.838 1.508 1.508 0 0 0 1.838-1.06 1.508 1.508 0 0 0-1.06-1.839c-.1-.027-.2-.04-.3-.047zm-.16 1c.064-.01.13 0 .199.014a.492.492 0 0 1 .353.612.491.491 0 0 1-.611.353.491.491 0 0 1-.354-.611.492.492 0 0 1 .413-.367zm7.033 2.174a.5.5 0 0 0-.342.156l-7.809 8.063a.52.52 0 0 1-.752.014l-1.77-1.715a.5.5 0 1 0-.694.719l1.77 1.715a1.54 1.54 0 0 0 2.163-.035h.002l7.809-8.063a.5.5 0 0 0-.377-.851z" baseline-shift="baseline" clip-rule="nonzero" color="#000" color-interpolation="sRGB" color-interpolation-filters="linearRGB" color-rendering="auto" direction="ltr" display="inline" font-family="sans-serif" font-size="medium" font-stretch="normal" font-style="normal" font-variant="normal" font-weight="normal" image-rendering="auto" letter-spacing="normal" opacity="1" overflow="visible" paint-order="fill markers stroke" shape-rendering="auto" text-anchor="start" text-decoration="none" text-rendering="auto" visibility="visible" word-spacing="normal" writing-mode="lr-tb"/></g></svg>