<svg id="SvgjsSvg1001" width="288" height="288" xmlns="http://www.w3.org/2000/svg" version="1.1" xmlns:xlink="http://www.w3.org/1999/xlink" xmlns:svgjs="http://svgjs.com/svgjs"><defs id="SvgjsDefs1002"></defs><g id="SvgjsG1008" transform="matrix(1,0,0,1,0,0)"><svg xmlns="http://www.w3.org/2000/svg" viewBox="0 0 24 24" width="288" height="288"><path fill="#ffffff" d="M22.18,4.14a.75.75,0,0,0-.51-.71L12.24.29a.79.79,0,0,0-.48,0L2.33,3.43a.75.75,0,0,0-.51.71V5.38a21.87,21.87,0,0,0,9.76,18.24.74.74,0,0,0,.84,0A21.87,21.87,0,0,0,22.18,5.38Zm-1.5,1.24A20.38,20.38,0,0,1,12,22.09,20.38,20.38,0,0,1,3.32,5.38v-.7L12,1.79l8.68,2.89ZM12.75,5V6.25H14v1.5H12a1.25,1.25,0,0,0,0,2.5,2.74,2.74,0,0,1,.75,5.38V17h-1.5V15.75H10v-1.5h2a1.25,1.25,0,0,0,0-2.5,2.74,2.74,0,0,1-.75-5.38V5Z" class="color22242b svgShape"></path></svg></g></svg>